{
	"asset":{
		"generator":"Khronos glTF Blender I/O v5.1.18",
		"version":"2.0"
	},
	"scene":0,
	"scenes":[
		{
			"name":"Scene",
			"nodes":[
				0,
				1,
				2,
				3,
				4,
				5,
				6,
				7,
				8,
				9,
				10,
				11,
				12,
				13,
				14,
				15,
				16,
				17,
				18,
				19
			]
		}
	],
	"nodes":[
		{
			"mesh":0,
			"name":"Mesh_0",
			"scale":[
				0.00800000037997961,
				0.00800000037997961,
				0.00800000037997961
			]
		},
		{
			"mesh":1,
			"name":"Mesh_0.003",
			"scale":[
				0.00800000037997961,
				0.00800000037997961,
				0.00800000037997961
			]
		},
		{
			"mesh":2,
			"name":"Mesh_0.004",
			"scale":[
				0.00800000037997961,
				0.00800000037997961,
				0.00800000037997961
			]
		},
		{
			"mesh":3,
			"name":"Mesh_0.005",
			"scale":[
				0.00800000037997961,
				0.00800000037997961,
				0.00800000037997961
			]
		},
		{
			"mesh":4,
			"name":"Mesh_0.006",
			"scale":[
				0.00800000037997961,
				0.00800000037997961,
				0.00800000037997961
			]
		},
		{
			"mesh":5,
			"name":"Mesh_0.007",
			"scale":[
				0.00800000037997961,
				0.00800000037997961,
				0.00800000037997961
			]
		},
		{
			"mesh":6,
			"name":"Mesh_0.008",
			"scale":[
				0.00800000037997961,
				0.00800000037997961,
				0.00800000037997961
			]
		},
		{
			"mesh":7,
			"name":"Mesh_0.009",
			"scale":[
				0.00800000037997961,
				0.00800000037997961,
				0.00800000037997961
			]
		},
		{
			"mesh":8,
			"name":"Mesh_0.010",
			"scale":[
				0.00800000037997961,
				0.00800000037997961,
				0.00800000037997961
			]
		},
		{
			"mesh":9,
			"name":"Mesh_0.011",
			"scale":[
				0.00800000037997961,
				0.00800000037997961,
				0.00800000037997961
			]
		},
		{
			"mesh":10,
			"name":"Mesh_0.012",
			"scale":[
				0.00800000037997961,
				0.00800000037997961,
				0.00800000037997961
			]
		},
		{
			"mesh":11,
			"name":"Mesh_0.014",
			"scale":[
				0.00800000037997961,
				0.00800000037997961,
				0.00800000037997961
			]
		},
		{
			"mesh":12,
			"name":"Mesh_0.015",
			"scale":[
				0.00800000037997961,
				0.00800000037997961,
				0.00800000037997961
			]
		},
		{
			"mesh":13,
			"name":"Mesh_0.016",
			"scale":[
				0.00800000037997961,
				0.00800000037997961,
				0.00800000037997961
			]
		},
		{
			"mesh":14,
			"name":"Mesh_0.017",
			"scale":[
				0.00800000037997961,
				0.00800000037997961,
				0.00800000037997961
			]
		},
		{
			"mesh":15,
			"name":"Mesh_0.018",
			"scale":[
				0.00800000037997961,
				0.00800000037997961,
				0.00800000037997961
			]
		},
		{
			"mesh":16,
			"name":"Mesh_0.019",
			"scale":[
				0.00800000037997961,
				0.00800000037997961,
				0.00800000037997961
			]
		},
		{
			"mesh":17,
			"name":"Mesh_0.020",
			"scale":[
				0.00800000037997961,
				0.00800000037997961,
				0.00800000037997961
			]
		},
		{
			"mesh":18,
			"name":"Mesh_0.023",
			"scale":[
				0.00800000037997961,
				0.00800000037997961,
				0.00800000037997961
			]
		},
		{
			"mesh":19,
			"name":"Mesh_0.024",
			"scale":[
				0.00800000037997961,
				0.00800000037997961,
				0.00800000037997961
			]
		}
	],
	"materials":[
		{
			"name":"Material_24",
			"normalTexture":{
				"index":0
			},
			"pbrMetallicRoughness":{
				"baseColorFactor":[
					0.5879999995231628,
					0.5879999995231628,
					0.5879999995231628,
					1
				],
				"baseColorTexture":{
					"index":1
				},
				"metallicRoughnessTexture":{
					"index":2
				}
			}
		},
		{
			"name":"Material_1",
			"normalTexture":{
				"index":3
			},
			"pbrMetallicRoughness":{
				"baseColorFactor":[
					0.5879999995231628,
					0.5879999995231628,
					0.5879999995231628,
					1
				],
				"baseColorTexture":{
					"index":4
				},
				"metallicRoughnessTexture":{
					"index":5
				}
			}
		},
		{
			"name":"Material_4",
			"normalTexture":{
				"index":6
			},
			"pbrMetallicRoughness":{
				"baseColorFactor":[
					0.5879999995231628,
					0.5879999995231628,
					0.5879999995231628,
					1
				],
				"baseColorTexture":{
					"index":7
				},
				"metallicRoughnessTexture":{
					"index":8
				}
			}
		},
		{
			"name":"Material_5",
			"normalTexture":{
				"index":9
			},
			"pbrMetallicRoughness":{
				"baseColorFactor":[
					0.5879999995231628,
					0.5879999995231628,
					0.5879999995231628,
					1
				],
				"baseColorTexture":{
					"index":10
				},
				"metallicRoughnessTexture":{
					"index":11
				}
			}
		},
		{
			"name":"Material_6",
			"normalTexture":{
				"index":12
			},
			"pbrMetallicRoughness":{
				"baseColorFactor":[
					0.5879999995231628,
					0.5879999995231628,
					0.5879999995231628,
					1
				],
				"baseColorTexture":{
					"index":13
				},
				"metallicRoughnessTexture":{
					"index":14
				}
			}
		},
		{
			"name":"Material_7",
			"normalTexture":{
				"index":15
			},
			"pbrMetallicRoughness":{
				"baseColorFactor":[
					0.5879999995231628,
					0.5879999995231628,
					0.5879999995231628,
					1
				],
				"baseColorTexture":{
					"index":16
				},
				"metallicRoughnessTexture":{
					"index":17
				}
			}
		},
		{
			"name":"Material_8",
			"normalTexture":{
				"index":18
			},
			"pbrMetallicRoughness":{
				"baseColorFactor":[
					0.5879999995231628,
					0.5879999995231628,
					0.5879999995231628,
					1
				],
				"baseColorTexture":{
					"index":19
				},
				"metallicRoughnessTexture":{
					"index":20
				}
			}
		},
		{
			"name":"Material_9",
			"normalTexture":{
				"index":21
			},
			"pbrMetallicRoughness":{
				"baseColorFactor":[
					0.5879999995231628,
					0.5879999995231628,
					0.5879999995231628,
					1
				],
				"baseColorTexture":{
					"index":22
				},
				"metallicRoughnessTexture":{
					"index":23
				}
			}
		},
		{
			"name":"Material_10",
			"normalTexture":{
				"index":24
			},
			"pbrMetallicRoughness":{
				"baseColorFactor":[
					0.5879999995231628,
					0.5879999995231628,
					0.5879999995231628,
					1
				],
				"baseColorTexture":{
					"index":25
				},
				"metallicRoughnessTexture":{
					"index":26
				}
			}
		},
		{
			"name":"Material_11",
			"normalTexture":{
				"index":27
			},
			"pbrMetallicRoughness":{
				"baseColorFactor":[
					0.5879999995231628,
					0.5879999995231628,
					0.5879999995231628,
					1
				],
				"baseColorTexture":{
					"index":28
				},
				"metallicRoughnessTexture":{
					"index":29
				}
			}
		},
		{
			"name":"Material_12",
			"normalTexture":{
				"index":30
			},
			"pbrMetallicRoughness":{
				"baseColorFactor":[
					0.5879999995231628,
					0.5879999995231628,
					0.5879999995231628,
					1
				],
				"baseColorTexture":{
					"index":31
				},
				"metallicRoughnessTexture":{
					"index":32
				}
			}
		},
		{
			"name":"Material_13",
			"normalTexture":{
				"index":33
			},
			"pbrMetallicRoughness":{
				"baseColorFactor":[
					0.5879999995231628,
					0.5879999995231628,
					0.5879999995231628,
					1
				],
				"baseColorTexture":{
					"index":34
				},
				"metallicRoughnessTexture":{
					"index":35
				}
			}
		},
		{
			"name":"Material_14",
			"normalTexture":{
				"index":36
			},
			"pbrMetallicRoughness":{
				"baseColorFactor":[
					0.5879999995231628,
					0.5879999995231628,
					0.5879999995231628,
					1
				],
				"baseColorTexture":{
					"index":37
				},
				"metallicRoughnessTexture":{
					"index":38
				}
			}
		},
		{
			"name":"Material_15",
			"normalTexture":{
				"index":39
			},
			"pbrMetallicRoughness":{
				"baseColorFactor":[
					0.5879999995231628,
					0.5879999995231628,
					0.5879999995231628,
					1
				],
				"baseColorTexture":{
					"index":40
				},
				"metallicRoughnessTexture":{
					"index":41
				}
			}
		},
		{
			"name":"Material_16",
			"normalTexture":{
				"index":42
			},
			"pbrMetallicRoughness":{
				"baseColorFactor":[
					0.5879999995231628,
					0.5879999995231628,
					0.5879999995231628,
					1
				],
				"baseColorTexture":{
					"index":43
				},
				"metallicRoughnessTexture":{
					"index":44
				}
			}
		},
		{
			"name":"Material_17",
			"normalTexture":{
				"index":45
			},
			"pbrMetallicRoughness":{
				"baseColorFactor":[
					0.5879999995231628,
					0.5879999995231628,
					0.5879999995231628,
					1
				],
				"baseColorTexture":{
					"index":46
				},
				"metallicRoughnessTexture":{
					"index":47
				}
			}
		},
		{
			"name":"Material_18",
			"normalTexture":{
				"index":48
			},
			"pbrMetallicRoughness":{
				"baseColorFactor":[
					0.5879999995231628,
					0.5879999995231628,
					0.5879999995231628,
					1
				],
				"baseColorTexture":{
					"index":49
				},
				"metallicRoughnessTexture":{
					"index":50
				}
			}
		},
		{
			"name":"Material_19",
			"normalTexture":{
				"index":51
			},
			"pbrMetallicRoughness":{
				"baseColorFactor":[
					0.5879999995231628,
					0.5879999995231628,
					0.5879999995231628,
					1
				],
				"baseColorTexture":{
					"index":52
				},
				"metallicRoughnessTexture":{
					"index":53
				}
			}
		},
		{
			"name":"Material_22",
			"normalTexture":{
				"index":54
			},
			"pbrMetallicRoughness":{
				"baseColorFactor":[
					0.5879999995231628,
					0.5879999995231628,
					0.5879999995231628,
					1
				],
				"baseColorTexture":{
					"index":55
				},
				"metallicRoughnessTexture":{
					"index":56
				}
			}
		},
		{
			"name":"Material_23",
			"normalTexture":{
				"index":57
			},
			"pbrMetallicRoughness":{
				"baseColorFactor":[
					0.5879999995231628,
					0.5879999995231628,
					0.5879999995231628,
					1
				],
				"baseColorTexture":{
					"index":58
				},
				"metallicRoughnessTexture":{
					"index":59
				}
			}
		}
	],
	"meshes":[
		{
			"name":"Mesh_0",
			"primitives":[
				{
					"attributes":{
						"POSITION":0,
						"NORMAL":1,
						"TEXCOORD_0":2
					},
					"indices":3,
					"material":0
				}
			]
		},
		{
			"name":"Mesh_0.003",
			"primitives":[
				{
					"attributes":{
						"POSITION":4,
						"NORMAL":5,
						"TEXCOORD_0":6
					},
					"indices":7,
					"material":1
				}
			]
		},
		{
			"name":"Mesh_0.004",
			"primitives":[
				{
					"attributes":{
						"POSITION":8,
						"NORMAL":9,
						"TEXCOORD_0":10
					},
					"indices":11,
					"material":2
				}
			]
		},
		{
			"name":"Mesh_0.005",
			"primitives":[
				{
					"attributes":{
						"POSITION":12,
						"NORMAL":13,
						"TEXCOORD_0":14
					},
					"indices":15,
					"material":3
				}
			]
		},
		{
			"name":"Mesh_0.006",
			"primitives":[
				{
					"attributes":{
						"POSITION":16,
						"NORMAL":17,
						"TEXCOORD_0":18
					},
					"indices":19,
					"material":4
				}
			]
		},
		{
			"name":"Mesh_0.007",
			"primitives":[
				{
					"attributes":{
						"POSITION":20,
						"NORMAL":21,
						"TEXCOORD_0":22
					},
					"indices":23,
					"material":5
				}
			]
		},
		{
			"name":"Mesh_0.008",
			"primitives":[
				{
					"attributes":{
						"POSITION":24,
						"NORMAL":25,
						"TEXCOORD_0":26
					},
					"indices":27,
					"material":6
				}
			]
		},
		{
			"name":"Mesh_0.009",
			"primitives":[
				{
					"attributes":{
						"POSITION":28,
						"NORMAL":29,
						"TEXCOORD_0":30
					},
					"indices":31,
					"material":7
				}
			]
		},
		{
			"name":"Mesh_0.010",
			"primitives":[
				{
					"attributes":{
						"POSITION":32,
						"NORMAL":33,
						"TEXCOORD_0":34
					},
					"indices":35,
					"material":8
				}
			]
		},
		{
			"name":"Mesh_0.011",
			"primitives":[
				{
					"attributes":{
						"POSITION":36,
						"NORMAL":37,
						"TEXCOORD_0":38
					},
					"indices":39,
					"material":9
				}
			]
		},
		{
			"name":"Mesh_0.012",
			"primitives":[
				{
					"attributes":{
						"POSITION":40,
						"NORMAL":41,
						"TEXCOORD_0":42
					},
					"indices":43,
					"material":10
				}
			]
		},
		{
			"name":"Mesh_0.014",
			"primitives":[
				{
					"attributes":{
						"POSITION":44,
						"NORMAL":45,
						"TEXCOORD_0":46
					},
					"indices":47,
					"material":11
				}
			]
		},
		{
			"name":"Mesh_0.015",
			"primitives":[
				{
					"attributes":{
						"POSITION":48,
						"NORMAL":49,
						"TEXCOORD_0":50
					},
					"indices":51,
					"material":12
				}
			]
		},
		{
			"name":"Mesh_0.016",
			"primitives":[
				{
					"attributes":{
						"POSITION":52,
						"NORMAL":53,
						"TEXCOORD_0":54
					},
					"indices":55,
					"material":13
				}
			]
		},
		{
			"name":"Mesh_0.017",
			"primitives":[
				{
					"attributes":{
						"POSITION":56,
						"NORMAL":57,
						"TEXCOORD_0":58
					},
					"indices":59,
					"material":14
				}
			]
		},
		{
			"name":"Mesh_0.018",
			"primitives":[
				{
					"attributes":{
						"POSITION":60,
						"NORMAL":61,
						"TEXCOORD_0":62
					},
					"indices":63,
					"material":15
				}
			]
		},
		{
			"name":"Mesh_0.019",
			"primitives":[
				{
					"attributes":{
						"POSITION":64,
						"NORMAL":65,
						"TEXCOORD_0":66
					},
					"indices":67,
					"material":16
				}
			]
		},
		{
			"name":"Mesh_0.020",
			"primitives":[
				{
					"attributes":{
						"POSITION":68,
						"NORMAL":69,
						"TEXCOORD_0":70
					},
					"indices":63,
					"material":17
				}
			]
		},
		{
			"name":"Mesh_0.023",
			"primitives":[
				{
					"attributes":{
						"POSITION":71,
						"NORMAL":72,
						"TEXCOORD_0":73
					},
					"indices":74,
					"material":18
				}
			]
		},
		{
			"name":"Mesh_0.024",
			"primitives":[
				{
					"attributes":{
						"POSITION":75,
						"NORMAL":76,
						"TEXCOORD_0":77
					},
					"indices":78,
					"material":19
				}
			]
		}
	],
	"textures":[
		{
			"sampler":0,
			"source":0
		},
		{
			"sampler":0,
			"source":1
		},
		{
			"sampler":0,
			"source":2
		},
		{
			"sampler":0,
			"source":3
		},
		{
			"sampler":0,
			"source":4
		},
		{
			"sampler":0,
			"source":5
		},
		{
			"sampler":0,
			"source":6
		},
		{
			"sampler":0,
			"source":7
		},
		{
			"sampler":0,
			"source":8
		},
		{
			"sampler":0,
			"source":9
		},
		{
			"sampler":0,
			"source":10
		},
		{
			"sampler":0,
			"source":11
		},
		{
			"sampler":0,
			"source":12
		},
		{
			"sampler":0,
			"source":13
		},
		{
			"sampler":0,
			"source":14
		},
		{
			"sampler":0,
			"source":15
		},
		{
			"sampler":0,
			"source":16
		},
		{
			"sampler":0,
			"source":17
		},
		{
			"sampler":0,
			"source":18
		},
		{
			"sampler":0,
			"source":19
		},
		{
			"sampler":0,
			"source":20
		},
		{
			"sampler":0,
			"source":21
		},
		{
			"sampler":0,
			"source":22
		},
		{
			"sampler":0,
			"source":23
		},
		{
			"sampler":0,
			"source":24
		},
		{
			"sampler":0,
			"source":25
		},
		{
			"sampler":0,
			"source":26
		},
		{
			"sampler":0,
			"source":27
		},
		{
			"sampler":0,
			"source":28
		},
		{
			"sampler":0,
			"source":29
		},
		{
			"sampler":0,
			"source":30
		},
		{
			"sampler":0,
			"source":31
		},
		{
			"sampler":0,
			"source":32
		},
		{
			"sampler":0,
			"source":33
		},
		{
			"sampler":0,
			"source":34
		},
		{
			"sampler":0,
			"source":35
		},
		{
			"sampler":0,
			"source":36
		},
		{
			"sampler":0,
			"source":37
		},
		{
			"sampler":0,
			"source":38
		},
		{
			"sampler":0,
			"source":39
		},
		{
			"sampler":0,
			"source":40
		},
		{
			"sampler":0,
			"source":38
		},
		{
			"sampler":0,
			"source":41
		},
		{
			"sampler":0,
			"source":42
		},
		{
			"sampler":0,
			"source":38
		},
		{
			"sampler":0,
			"source":43
		},
		{
			"sampler":0,
			"source":44
		},
		{
			"sampler":0,
			"source":45
		},
		{
			"sampler":0,
			"source":46
		},
		{
			"sampler":0,
			"source":47
		},
		{
			"sampler":0,
			"source":45
		},
		{
			"sampler":0,
			"source":48
		},
		{
			"sampler":0,
			"source":49
		},
		{
			"sampler":0,
			"source":45
		},
		{
			"sampler":0,
			"source":50
		},
		{
			"sampler":0,
			"source":51
		},
		{
			"sampler":0,
			"source":52
		},
		{
			"sampler":0,
			"source":53
		},
		{
			"sampler":0,
			"source":54
		},
		{
			"sampler":0,
			"source":55
		}
	],
	"images":[
		{
			"mimeType":"image/jpeg",
			"name":"14118779221266351425",
			"uri":"14118779221266351425.jpg"
		},
		{
			"mimeType":"image/jpeg",
			"name":"2969916736137545357",
			"uri":"2969916736137545357.jpg"
		},
		{
			"mimeType":"image/jpeg",
			"name":"8747919177698443163",
			"uri":"8747919177698443163.jpg"
		},
		{
			"mimeType":"image/jpeg",
			"name":"4477655471536070370",
			"uri":"4477655471536070370.jpg"
		},
		{
			"mimeType":"image/jpeg",
			"name":"7268504077753552595",
			"uri":"7268504077753552595.jpg"
		},
		{
			"mimeType":"image/jpeg",
			"name":"8503262930880235456",
			"uri":"8503262930880235456.jpg"
		},
		{
			"mimeType":"image/jpeg",
			"name":"13982482287905699490",
			"uri":"13982482287905699490.jpg"
		},
		{
			"mimeType":"image/jpeg",
			"name":"8750083169368950601",
			"uri":"8750083169368950601.jpg"
		},
		{
			"mimeType":"image/jpeg",
			"name":"16885566240357350108",
			"uri":"16885566240357350108.jpg"
		},
		{
			"mimeType":"image/jpeg",
			"name":"16299174074766089871",
			"uri":"16299174074766089871.jpg"
		},
		{
			"mimeType":"image/jpeg",
			"name":"5792855332885324923",
			"uri":"5792855332885324923.jpg"
		},
		{
			"mimeType":"image/jpeg",
			"name":"11968150294050148237",
			"uri":"11968150294050148237.jpg"
		},
		{
			"mimeType":"image/jpeg",
			"name":"2051777328469649772",
			"uri":"2051777328469649772.jpg"
		},
		{
			"mimeType":"image/jpeg",
			"name":"14650633544276105767",
			"uri":"14650633544276105767.jpg"
		},
		{
			"mimeType":"image/jpeg",
			"name":"4871783166746854860",
			"uri":"4871783166746854860.jpg"
		},
		{
			"mimeType":"image/jpeg",
			"name":"10388182081421875623",
			"uri":"10388182081421875623.jpg"
		},
		{
			"mimeType":"image/jpeg",
			"name":"15295713303328085182",
			"uri":"15295713303328085182.jpg"
		},
		{
			"mimeType":"image/jpeg",
			"name":"9916269861720640319",
			"uri":"9916269861720640319.jpg"
		},
		{
			"mimeType":"image/jpeg",
			"name":"15722799267630235092",
			"uri":"15722799267630235092.jpg"
		},
		{
			"mimeType":"image/jpeg",
			"name":"6047387724914829168",
			"uri":"6047387724914829168.jpg"
		},
		{
			"mimeType":"image/jpeg",
			"name":"8051790464816141987",
			"uri":"8051790464816141987.jpg"
		},
		{
			"mimeType":"image/jpeg",
			"name":"14267839433702832875",
			"uri":"14267839433702832875.jpg"
		},
		{
			"mimeType":"image/jpeg",
			"name":"5823059166183034438",
			"uri":"5823059166183034438.jpg"
		},
		{
			"mimeType":"image/jpeg",
			"name":"13824894030729245199",
			"uri":"13824894030729245199.jpg"
		},
		{
			"mimeType":"image/jpeg",
			"name":"6667038893015345571",
			"uri":"6667038893015345571.jpg"
		},
		{
			"mimeType":"image/jpeg",
			"name":"7441062115984513793",
			"uri":"7441062115984513793.jpg"
		},
		{
			"mimeType":"image/jpeg",
			"name":"8114461559286000061",
			"uri":"8114461559286000061.jpg"
		},
		{
			"mimeType":"image/jpeg",
			"name":"3628158980083700836",
			"uri":"3628158980083700836.jpg"
		},
		{
			"mimeType":"image/jpeg",
			"name":"11490520546946913238",
			"uri":"11490520546946913238.jpg"
		},
		{
			"mimeType":"image/jpeg",
			"name":"3455394979645218238",
			"uri":"3455394979645218238.jpg"
		},
		{
			"mimeType":"image/jpeg",
			"name":"7645212358685992005",
			"uri":"7645212358685992005.jpg"
		},
		{
			"mimeType":"image/jpeg",
			"name":"6151467286084645207",
			"uri":"6151467286084645207.jpg"
		},
		{
			"mimeType":"image/jpeg",
			"name":"8783994986360286082",
			"uri":"8783994986360286082.jpg"
		},
		{
			"mimeType":"image/jpeg",
			"name":"2299742237651021498",
			"uri":"2299742237651021498.jpg"
		},
		{
			"mimeType":"image/jpeg",
			"name":"4975155472559461469",
			"uri":"4975155472559461469.jpg"
		},
		{
			"mimeType":"image/jpeg",
			"name":"3371964815757888145",
			"uri":"3371964815757888145.jpg"
		},
		{
			"mimeType":"image/jpeg",
			"name":"7056944414013900257",
			"uri":"7056944414013900257.jpg"
		},
		{
			"mimeType":"image/jpeg",
			"name":"4675343432951571524",
			"uri":"4675343432951571524.jpg"
		},
		{
			"mimeType":"image/jpeg",
			"name":"7815564343179553343",
			"uri":"7815564343179553343.jpg"
		},
		{
			"mimeType":"image/jpeg",
			"name":"2374361008830720677",
			"uri":"2374361008830720677.jpg"
		},
		{
			"mimeType":"image/jpeg",
			"name":"2775690330959970771",
			"uri":"2775690330959970771.jpg"
		},
		{
			"mimeType":"image/jpeg",
			"name":"332936164838540657",
			"uri":"332936164838540657.jpg"
		},
		{
			"mimeType":"image/jpeg",
			"name":"2185409758123873465",
			"uri":"2185409758123873465.jpg"
		},
		{
			"mimeType":"image/jpeg",
			"name":"6593109234861095314",
			"uri":"6593109234861095314.jpg"
		},
		{
			"mimeType":"image/jpeg",
			"name":"17876391417123941155",
			"uri":"17876391417123941155.jpg"
		},
		{
			"mimeType":"image/jpeg",
			"name":"466164707995436622",
			"uri":"466164707995436622.jpg"
		},
		{
			"mimeType":"image/jpeg",
			"name":"4601176305987539675",
			"uri":"4601176305987539675.jpg"
		},
		{
			"mimeType":"image/jpeg",
			"name":"11474523244911310074",
			"uri":"11474523244911310074.jpg"
		},
		{
			"mimeType":"image/jpeg",
			"name":"4910669866631290573",
			"uri":"4910669866631290573.jpg"
		},
		{
			"mimeType":"image/jpeg",
			"name":"9288698199695299068",
			"uri":"9288698199695299068.jpg"
		},
		{
			"mimeType":"image/jpeg",
			"name":"10381718147657362067",
			"uri":"10381718147657362067.jpg"
		},
		{
			"mimeType":"image/jpeg",
			"name":"8481240838833932244",
			"uri":"8481240838833932244.jpg"
		},
		{
			"mimeType":"image/jpeg",
			"name":"17556969131407844942",
			"uri":"17556969131407844942.jpg"
		},
		{
			"mimeType":"image/jpeg",
			"name":"759203620573749278",
			"uri":"759203620573749278.jpg"
		},
		{
			"mimeType":"image/jpeg",
			"name":"6772804448157695701",
			"uri":"6772804448157695701.jpg"
		},
		{
			"mimeType":"image/jpeg",
			"name":"13196865903111448057",
			"uri":"13196865903111448057.jpg"
		}
	],
	"accessors":[
		{
			"bufferView":0,
			"componentType":5126,
			"count":11979,
			"max":[
				1799.9080810546875,
				1182.80712890625,
				1429.4332275390625
			],
			"min":[
				-1920.9459228515625,
				-1105.426025390625,
				1280.513427734375
			],
			"type":"VEC3"
		},
		{
			"bufferView":1,
			"componentType":5126,
			"count":11979,
			"type":"VEC3"
		},
		{
			"bufferView":2,
			"componentType":5126,
			"count":11979,
			"type":"VEC2"
		},
		{
			"bufferView":3,
			"componentType":5123,
			"count":43452,
			"type":"SCALAR"
		},
		{
			"bufferView":4,
			"componentType":5126,
			"count":9848,
			"max":[
				859.2954711914062,
				251.64309692382812,
				56.199501037597656
			],
			"min":[
				-990.7388916015625,
				-179.31080627441406,
				-4.030700206756592
			],
			"type":"VEC3"
		},
		{
			"bufferView":5,
			"componentType":5126,
			"count":9848,
			"type":"VEC3"
		},
		{
			"bufferView":6,
			"componentType":5126,
			"count":9848,
			"type":"VEC2"
		},
		{
			"bufferView":7,
			"componentType":5123,
			"count":53064,
			"type":"SCALAR"
		},
		{
			"bufferView":8,
			"componentType":5126,
			"count":2259,
			"max":[
				1299.8668212890625,
				163.38650512695312,
				758.5531005859375
			],
			"min":[
				-1428.27490234375,
				-88.62689971923828,
				40.818599700927734
			],
			"type":"VEC3"
		},
		{
			"bufferView":9,
			"componentType":5126,
			"count":2259,
			"type":"VEC3"
		},
		{
			"bufferView":10,
			"componentType":5126,
			"count":2259,
			"type":"VEC2"
		},
		{
			"bufferView":11,
			"componentType":5123,
			"count":12258,
			"type":"SCALAR"
		},
		{
			"bufferView":12,
			"componentType":5126,
			"count":1090,
			"max":[
				1746.69287109375,
				1139.030517578125,
				1347.19580078125
			],
			"min":[
				-1866.98291015625,
				-1039.711181640625,
				-126.44249725341797
			],
			"type":"VEC3"
		},
		{
			"bufferView":13,
			"componentType":5126,
			"count":1090,
			"type":"VEC3"
		},
		{
			"bufferView":14,
			"componentType":5126,
			"count":1090,
			"type":"VEC2"
		},
		{
			"bufferView":15,
			"componentType":5123,
			"count":2388,
			"type":"SCALAR"
		},
		{
			"bufferView":16,
			"componentType":5126,
			"count":11373,
			"max":[
				921.9354858398438,
				318.1059875488281,
				1275.01123046875
			],
			"min":[
				-1052.875732421875,
				-245.81419372558594,
				211.39549255371094
			],
			"type":"VEC3"
		},
		{
			"bufferView":17,
			"componentType":5126,
			"count":11373,
			"type":"VEC3"
		},
		{
			"bufferView":18,
			"componentType":5126,
			"count":11373,
			"type":"VEC2"
		},
		{
			"bufferView":19,
			"componentType":5123,
			"count":30504,
			"type":"SCALAR"
		},
		{
			"bufferView":20,
			"componentType":5126,
			"count":5068,
			"max":[
				1302.20166015625,
				645.1483154296875,
				1263.927978515625
			],
			"min":[
				-1429.452392578125,
				-574.9027099609375,
				215.80360412597656
			],
			"type":"VEC3"
		},
		{
			"bufferView":21,
			"componentType":5126,
			"count":5068,
			"type":"VEC3"
		},
		{
			"bufferView":22,
			"componentType":5126,
			"count":5068,
			"type":"VEC2"
		},
		{
			"bufferView":23,
			"componentType":5123,
			"count":17628,
			"type":"SCALAR"
		},
		{
			"bufferView":24,
			"componentType":5126,
			"count":3534,
			"max":[
				925.6038208007812,
				316.86920166015625,
				220.99710083007812
			],
			"min":[
				-1057.22021484375,
				-246.61489868164062,
				-2.460700035095215
			],
			"type":"VEC3"
		},
		{
			"bufferView":25,
			"componentType":5126,
			"count":3534,
			"type":"VEC3"
		},
		{
			"bufferView":26,
			"componentType":5126,
			"count":3534,
			"type":"VEC2"
		},
		{
			"bufferView":27,
			"componentType":5123,
			"count":8448,
			"type":"SCALAR"
		},
		{
			"bufferView":28,
			"componentType":5126,
			"count":23,
			"max":[
				1302.220947265625,
				645.4310302734375,
				415.5303039550781
			],
			"min":[
				-1432.224365234375,
				-574.1851806640625,
				-2.506200075149536
			],
			"type":"VEC3"
		},
		{
			"bufferView":29,
			"componentType":5126,
			"count":23,
			"type":"VEC3"
		},
		{
			"bufferView":30,
			"componentType":5126,
			"count":23,
			"type":"VEC2"
		},
		{
			"bufferView":31,
			"componentType":5123,
			"count":63,
			"type":"SCALAR"
		},
		{
			"bufferView":32,
			"componentType":5126,
			"count":14030,
			"max":[
				1303.27197265625,
				646.9678955078125,
				695.3228149414062
			],
			"min":[
				-1430.30517578125,
				-575.7255249023438,
				182.6522979736328
			],
			"type":"VEC3"
		},
		{
			"bufferView":33,
			"componentType":5126,
			"count":14030,
			"type":"VEC3"
		},
		{
			"bufferView":34,
			"componentType":5126,
			"count":14030,
			"type":"VEC2"
		},
		{
			"bufferView":35,
			"componentType":5123,
			"count":21264,
			"type":"SCALAR"
		},
		{
			"bufferView":36,
			"componentType":5126,
			"count":1136,
			"max":[
				1315.5244140625,
				651.5385131835938,
				716.8505859375
			],
			"min":[
				-509.68328857421875,
				-605.0136108398438,
				-2.2155001163482666
			],
			"type":"VEC3"
		},
		{
			"bufferView":37,
			"componentType":5126,
			"count":1136,
			"type":"VEC3"
		},
		{
			"bufferView":38,
			"componentType":5126,
			"count":1136,
			"type":"VEC2"
		},
		{
			"bufferView":39,
			"componentType":5123,
			"count":2640,
			"type":"SCALAR"
		},
		{
			"bufferView":40,
			"componentType":5126,
			"count":23327,
			"max":[
				907.4069213867188,
				309.70550537109375,
				699.61181640625
			],
			"min":[
				-1037.651611328125,
				-234.77340698242188,
				506.6332092285156
			],
			"type":"VEC3"
		},
		{
			"bufferView":41,
			"componentType":5126,
			"count":23327,
			"type":"VEC3"
		},
		{
			"bufferView":42,
			"componentType":5126,
			"count":23327,
			"type":"VEC2"
		},
		{
			"bufferView":43,
			"componentType":5123,
			"count":69624,
			"type":"SCALAR"
		},
		{
			"bufferView":44,
			"componentType":5126,
			"count":12421,
			"max":[
				830.2938842773438,
				289.70361328125,
				886.1389770507812
			],
			"min":[
				-958.6978149414062,
				-209.11500549316406,
				274.9595947265625
			],
			"type":"VEC3"
		},
		{
			"bufferView":45,
			"componentType":5126,
			"count":12421,
			"type":"VEC3"
		},
		{
			"bufferView":46,
			"componentType":5126,
			"count":12421,
			"type":"VEC2"
		},
		{
			"bufferView":47,
			"componentType":5123,
			"count":49488,
			"type":"SCALAR"
		},
		{
			"bufferView":48,
			"componentType":5126,
			"count":9978,
			"max":[
				651.9561767578125,
				324.5262145996094,
				520.5938720703125
			],
			"min":[
				-783.794189453125,
				-252.28579711914062,
				339.4429931640625
			],
			"type":"VEC3"
		},
		{
			"bufferView":49,
			"componentType":5126,
			"count":9978,
			"type":"VEC3"
		},
		{
			"bufferView":50,
			"componentType":5126,
			"count":9978,
			"type":"VEC2"
		},
		{
			"bufferView":51,
			"componentType":5123,
			"count":49536,
			"type":"SCALAR"
		},
		{
			"bufferView":52,
			"componentType":5126,
			"count":9979,
			"max":[
				648.8516845703125,
				324.5262145996094,
				520.5938720703125
			],
			"min":[
				-786.898681640625,
				-252.28570556640625,
				339.4429931640625
			],
			"type":"VEC3"
		},
		{
			"bufferView":53,
			"componentType":5126,
			"count":9979,
			"type":"VEC3"
		},
		{
			"bufferView":54,
			"componentType":5126,
			"count":9979,
			"type":"VEC2"
		},
		{
			"bufferView":55,
			"componentType":5123,
			"count":49536,
			"type":"SCALAR"
		},
		{
			"bufferView":56,
			"componentType":5126,
			"count":6645,
			"max":[
				283.3501892089844,
				324.5262145996094,
				520.5938720703125
			],
			"min":[
				-418.2926025390625,
				-252.2855987548828,
				339.4429931640625
			],
			"type":"VEC3"
		},
		{
			"bufferView":57,
			"componentType":5126,
			"count":6645,
			"type":"VEC3"
		},
		{
			"bufferView":58,
			"componentType":5126,
			"count":6645,
			"type":"VEC2"
		},
		{
			"bufferView":59,
			"componentType":5123,
			"count":33024,
			"type":"SCALAR"
		},
		{
			"bufferView":60,
			"componentType":5126,
			"count":7739,
			"max":[
				820.1740112304688,
				295.25439453125,
				283.6809997558594
			],
			"min":[
				-577.6201782226562,
				-213.4824981689453,
				-0.30889999866485596
			],
			"type":"VEC3"
		},
		{
			"bufferView":61,
			"componentType":5126,
			"count":7739,
			"type":"VEC3"
		},
		{
			"bufferView":62,
			"componentType":5126,
			"count":7739,
			"type":"VEC2"
		},
		{
			"bufferView":63,
			"componentType":5123,
			"count":43008,
			"type":"SCALAR"
		},
		{
			"bufferView":64,
			"componentType":5126,
			"count":10248,
			"max":[
				820.1740112304688,
				295.25439453125,
				283.6809997558594
			],
			"min":[
				-946.2379150390625,
				-213.4824981689453,
				-0.30889999866485596
			],
			"type":"VEC3"
		},
		{
			"bufferView":65,
			"componentType":5126,
			"count":10248,
			"type":"VEC3"
		},
		{
			"bufferView":66,
			"componentType":5126,
			"count":10248,
			"type":"VEC2"
		},
		{
			"bufferView":67,
			"componentType":5123,
			"count":56832,
			"type":"SCALAR"
		},
		{
			"bufferView":68,
			"componentType":5126,
			"count":7739,
			"max":[
				448.0338134765625,
				289.25689697265625,
				283.6809997558594
			],
			"min":[
				-946.2379150390625,
				-213.4824981689453,
				-0.30889999866485596
			],
			"type":"VEC3"
		},
		{
			"bufferView":69,
			"componentType":5126,
			"count":7739,
			"type":"VEC3"
		},
		{
			"bufferView":70,
			"componentType":5126,
			"count":7739,
			"type":"VEC2"
		},
		{
			"bufferView":71,
			"componentType":5126,
			"count":5308,
			"max":[
				1194.1705322265625,
				523.4995727539062,
				133.0167999267578
			],
			"min":[
				-1276.67333984375,
				-478.2618103027344,
				-0.6934000253677368
			],
			"type":"VEC3"
		},
		{
			"bufferView":72,
			"componentType":5126,
			"count":5308,
			"type":"VEC3"
		},
		{
			"bufferView":73,
			"componentType":5126,
			"count":5308,
			"type":"VEC2"
		},
		{
			"bufferView":74,
			"componentType":5123,
			"count":27552,
			"type":"SCALAR"
		},
		{
			"bufferView":75,
			"componentType":5126,
			"count":1732,
			"max":[
				1299.0263671875,
				114.69149780273438,
				264.7611999511719
			],
			"min":[
				-1427.434326171875,
				-42.85340118408203,
				79.90480041503906
			],
			"type":"VEC3"
		},
		{
			"bufferView":76,
			"componentType":5126,
			"count":1732,
			"type":"VEC3"
		},
		{
			"bufferView":77,
			"componentType":5126,
			"count":1732,
			"type":"VEC2"
		},
		{
			"bufferView":78,
			"componentType":5123,
			"count":9126,
			"type":"SCALAR"
		}
	],
	"bufferViews":[
		{
			"buffer":0,
			"byteLength":143748,
			"byteOffset":0,
			"target":34962
		},
		{
			"buffer":0,
			"byteLength":143748,
			"byteOffset":143748,
			"target":34962
		},
		{
			"buffer":0,
			"byteLength":95832,
			"byteOffset":287496,
			"target":34962
		},
		{
			"buffer":0,
			"byteLength":86904,
			"byteOffset":383328,
			"target":34963
		},
		{
			"buffer":0,
			"byteLength":118176,
			"byteOffset":470232,
			"target":34962
		},
		{
			"buffer":0,
			"byteLength":118176,
			"byteOffset":588408,
			"target":34962
		},
		{
			"buffer":0,
			"byteLength":78784,
			"byteOffset":706584,
			"target":34962
		},
		{
			"buffer":0,
			"byteLength":106128,
			"byteOffset":785368,
			"target":34963
		},
		{
			"buffer":0,
			"byteLength":27108,
			"byteOffset":891496,
			"target":34962
		},
		{
			"buffer":0,
			"byteLength":27108,
			"byteOffset":918604,
			"target":34962
		},
		{
			"buffer":0,
			"byteLength":18072,
			"byteOffset":945712,
			"target":34962
		},
		{
			"buffer":0,
			"byteLength":24516,
			"byteOffset":963784,
			"target":34963
		},
		{
			"buffer":0,
			"byteLength":13080,
			"byteOffset":988300,
			"target":34962
		},
		{
			"buffer":0,
			"byteLength":13080,
			"byteOffset":1001380,
			"target":34962
		},
		{
			"buffer":0,
			"byteLength":8720,
			"byteOffset":1014460,
			"target":34962
		},
		{
			"buffer":0,
			"byteLength":4776,
			"byteOffset":1023180,
			"target":34963
		},
		{
			"buffer":0,
			"byteLength":136476,
			"byteOffset":1027956,
			"target":34962
		},
		{
			"buffer":0,
			"byteLength":136476,
			"byteOffset":1164432,
			"target":34962
		},
		{
			"buffer":0,
			"byteLength":90984,
			"byteOffset":1300908,
			"target":34962
		},
		{
			"buffer":0,
			"byteLength":61008,
			"byteOffset":1391892,
			"target":34963
		},
		{
			"buffer":0,
			"byteLength":60816,
			"byteOffset":1452900,
			"target":34962
		},
		{
			"buffer":0,
			"byteLength":60816,
			"byteOffset":1513716,
			"target":34962
		},
		{
			"buffer":0,
			"byteLength":40544,
			"byteOffset":1574532,
			"target":34962
		},
		{
			"buffer":0,
			"byteLength":35256,
			"byteOffset":1615076,
			"target":34963
		},
		{
			"buffer":0,
			"byteLength":42408,
			"byteOffset":1650332,
			"target":34962
		},
		{
			"buffer":0,
			"byteLength":42408,
			"byteOffset":1692740,
			"target":34962
		},
		{
			"buffer":0,
			"byteLength":28272,
			"byteOffset":1735148,
			"target":34962
		},
		{
			"buffer":0,
			"byteLength":16896,
			"byteOffset":1763420,
			"target":34963
		},
		{
			"buffer":0,
			"byteLength":276,
			"byteOffset":1780316,
			"target":34962
		},
		{
			"buffer":0,
			"byteLength":276,
			"byteOffset":1780592,
			"target":34962
		},
		{
			"buffer":0,
			"byteLength":184,
			"byteOffset":1780868,
			"target":34962
		},
		{
			"buffer":0,
			"byteLength":126,
			"byteOffset":1781052,
			"target":34963
		},
		{
			"buffer":0,
			"byteLength":168360,
			"byteOffset":1781180,
			"target":34962
		},
		{
			"buffer":0,
			"byteLength":168360,
			"byteOffset":1949540,
			"target":34962
		},
		{
			"buffer":0,
			"byteLength":112240,
			"byteOffset":2117900,
			"target":34962
		},
		{
			"buffer":0,
			"byteLength":42528,
			"byteOffset":2230140,
			"target":34963
		},
		{
			"buffer":0,
			"byteLength":13632,
			"byteOffset":2272668,
			"target":34962
		},
		{
			"buffer":0,
			"byteLength":13632,
			"byteOffset":2286300,
			"target":34962
		},
		{
			"buffer":0,
			"byteLength":9088,
			"byteOffset":2299932,
			"target":34962
		},
		{
			"buffer":0,
			"byteLength":5280,
			"byteOffset":2309020,
			"target":34963
		},
		{
			"buffer":0,
			"byteLength":279924,
			"byteOffset":2314300,
			"target":34962
		},
		{
			"buffer":0,
			"byteLength":279924,
			"byteOffset":2594224,
			"target":34962
		},
		{
			"buffer":0,
			"byteLength":186616,
			"byteOffset":2874148,
			"target":34962
		},
		{
			"buffer":0,
			"byteLength":139248,
			"byteOffset":3060764,
			"target":34963
		},
		{
			"buffer":0,
			"byteLength":149052,
			"byteOffset":3200012,
			"target":34962
		},
		{
			"buffer":0,
			"byteLength":149052,
			"byteOffset":3349064,
			"target":34962
		},
		{
			"buffer":0,
			"byteLength":99368,
			"byteOffset":3498116,
			"target":34962
		},
		{
			"buffer":0,
			"byteLength":98976,
			"byteOffset":3597484,
			"target":34963
		},
		{
			"buffer":0,
			"byteLength":119736,
			"byteOffset":3696460,
			"target":34962
		},
		{
			"buffer":0,
			"byteLength":119736,
			"byteOffset":3816196,
			"target":34962
		},
		{
			"buffer":0,
			"byteLength":79824,
			"byteOffset":3935932,
			"target":34962
		},
		{
			"buffer":0,
			"byteLength":99072,
			"byteOffset":4015756,
			"target":34963
		},
		{
			"buffer":0,
			"byteLength":119748,
			"byteOffset":4114828,
			"target":34962
		},
		{
			"buffer":0,
			"byteLength":119748,
			"byteOffset":4234576,
			"target":34962
		},
		{
			"buffer":0,
			"byteLength":79832,
			"byteOffset":4354324,
			"target":34962
		},
		{
			"buffer":0,
			"byteLength":99072,
			"byteOffset":4434156,
			"target":34963
		},
		{
			"buffer":0,
			"byteLength":79740,
			"byteOffset":4533228,
			"target":34962
		},
		{
			"buffer":0,
			"byteLength":79740,
			"byteOffset":4612968,
			"target":34962
		},
		{
			"buffer":0,
			"byteLength":53160,
			"byteOffset":4692708,
			"target":34962
		},
		{
			"buffer":0,
			"byteLength":66048,
			"byteOffset":4745868,
			"target":34963
		},
		{
			"buffer":0,
			"byteLength":92868,
			"byteOffset":4811916,
			"target":34962
		},
		{
			"buffer":0,
			"byteLength":92868,
			"byteOffset":4904784,
			"target":34962
		},
		{
			"buffer":0,
			"byteLength":61912,
			"byteOffset":4997652,
			"target":34962
		},
		{
			"buffer":0,
			"byteLength":86016,
			"byteOffset":5059564,
			"target":34963
		},
		{
			"buffer":0,
			"byteLength":122976,
			"byteOffset":5145580,
			"target":34962
		},
		{
			"buffer":0,
			"byteLength":122976,
			"byteOffset":5268556,
			"target":34962
		},
		{
			"buffer":0,
			"byteLength":81984,
			"byteOffset":5391532,
			"target":34962
		},
		{
			"buffer":0,
			"byteLength":113664,
			"byteOffset":5473516,
			"target":34963
		},
		{
			"buffer":0,
			"byteLength":92868,
			"byteOffset":5587180,
			"target":34962
		},
		{
			"buffer":0,
			"byteLength":92868,
			"byteOffset":5680048,
			"target":34962
		},
		{
			"buffer":0,
			"byteLength":61912,
			"byteOffset":5772916,
			"target":34962
		},
		{
			"buffer":0,
			"byteLength":63696,
			"byteOffset":5834828,
			"target":34962
		},
		{
			"buffer":0,
			"byteLength":63696,
			"byteOffset":5898524,
			"target":34962
		},
		{
			"buffer":0,
			"byteLength":42464,
			"byteOffset":5962220,
			"target":34962
		},
		{
			"buffer":0,
			"byteLength":55104,
			"byteOffset":6004684,
			"target":34963
		},
		{
			"buffer":0,
			"byteLength":20784,
			"byteOffset":6059788,
			"target":34962
		},
		{
			"buffer":0,
			"byteLength":20784,
			"byteOffset":6080572,
			"target":34962
		},
		{
			"buffer":0,
			"byteLength":13856,
			"byteOffset":6101356,
			"target":34962
		},
		{
			"buffer":0,
			"byteLength":18252,
			"byteOffset":6115212,
			"target":34963
		}
	],
	"samplers":[
		{
			"magFilter":9729,
			"minFilter":9987
		}
	],
	"buffers":[
		{
			"byteLength":6133464,
			"uri":"sponza.bin"
		}
	]
}
