{
	"asset":{
		"generator":"Khronos glTF Blender I/O v4.1.63",
		"version":"2.0"
	},
	"extensionsUsed":[
		"KHR_texture_transform",
		"KHR_materials_specular",
		"KHR_materials_ior"
	],
	"extensionsRequired":[
		"KHR_texture_transform"
	],
	"scene":0,
	"scenes":[
		{
			"name":"Scene",
			"nodes":[
				0,
				1,
				2,
				3,
				4,
				5,
				6
			]
		}
	],
	"nodes":[
		{
			"mesh":0,
			"name":"side_wall"
		},
		{
			"mesh":1,
			"name":"diffuse",
			"translation":[
				4.912540435791016,
				2.73244047164917,
				0.3913872539997101
			]
		},
		{
			"mesh":2,
			"name":"floor"
		},
		{
			"mesh":3,
			"name":"back_wall"
		},
		{
			"mesh":4,
			"name":"metal",
			"translation":[
				2.5619895458221436,
				2.73244047164917,
				0.3913872539997101
			]
		},
		{
			"mesh":5,
			"name":"box",
			"translation":[
				-3.258038282394409,
				1.3097680807113647,
				1.0001373291015625
			]
		},
		{
			"mesh":6,
			"name":"mirror",
			"translation":[
				1.2433366775512695,
				5.736141681671143,
				1.0001368522644043
			]
		}
	],
	"materials":[
		{
			"doubleSided":true,
			"name":"side_wall_mat",
			"pbrMetallicRoughness":{
				"baseColorFactor":[
					0.800000011920929,
					0.800000011920929,
					0.800000011920929,
					1
				],
				"metallicFactor":0,
				"roughnessFactor":0.5
			}
		},
		{
			"doubleSided":true,
			"name":"diffuse_mat",
			"pbrMetallicRoughness":{
				"baseColorFactor":[
					0.053448133170604706,
					0.053448133170604706,
					0.053448133170604706,
					1
				],
				"metallicFactor":0,
				"roughnessFactor":0.5
			}
		},
		{
			"doubleSided":true,
			"name":"Material",
			"normalTexture":{
				"extensions":{
					"KHR_texture_transform":{
						"offset":[
							0,
							-4
						],
						"scale":[
							5,
							5
						]
					}
				},
				"index":0
			},
			"pbrMetallicRoughness":{
				"baseColorTexture":{
					"extensions":{
						"KHR_texture_transform":{
							"offset":[
								0,
								-4
							],
							"scale":[
								5,
								5
							]
						}
					},
					"index":1
				},
				"metallicFactor":0,
				"metallicRoughnessTexture":{
					"extensions":{
						"KHR_texture_transform":{
							"offset":[
								0,
								-4
							],
							"scale":[
								5,
								5
							]
						}
					},
					"index":2
				}
			}
		},
		{
			"doubleSided":true,
			"extensions":{
				"KHR_materials_specular":{
					"specularTexture":{
						"extensions":{
							"KHR_texture_transform":{
								"offset":[
									0,
									-4
								],
								"scale":[
									5,
									5
								]
							}
						},
						"index":3
					}
				},
				"KHR_materials_ior":{
					"ior":1.4500000476837158
				}
			},
			"name":"back_wall_mat",
			"normalTexture":{
				"extensions":{
					"KHR_texture_transform":{
						"offset":[
							0,
							-4
						],
						"scale":[
							5,
							5
						]
					}
				},
				"index":4
			},
			"pbrMetallicRoughness":{
				"baseColorTexture":{
					"extensions":{
						"KHR_texture_transform":{
							"offset":[
								0,
								-4
							],
							"scale":[
								5,
								5
							]
						}
					},
					"index":5
				},
				"metallicFactor":0,
				"metallicRoughnessTexture":{
					"extensions":{
						"KHR_texture_transform":{
							"offset":[
								0,
								-4
							],
							"scale":[
								5,
								5
							]
						}
					},
					"index":6
				}
			}
		},
		{
			"doubleSided":true,
			"name":"metal_mat",
			"pbrMetallicRoughness":{
				"baseColorFactor":[
					0.8000074625015259,
					0.5927994251251221,
					0.1907874196767807,
					1
				],
				"roughnessFactor":0.4000000059604645
			}
		},
		{
			"doubleSided":true,
			"name":"box_mat",
			"normalTexture":{
				"extensions":{
					"KHR_texture_transform":{
						"offset":[
							0,
							-1
						],
						"scale":[
							2,
							2
						]
					}
				},
				"index":7
			},
			"pbrMetallicRoughness":{
				"baseColorTexture":{
					"extensions":{
						"KHR_texture_transform":{
							"offset":[
								0,
								-1
							],
							"scale":[
								2,
								2
							]
						}
					},
					"index":8
				},
				"metallicRoughnessTexture":{
					"extensions":{
						"KHR_texture_transform":{
							"offset":[
								0,
								-1
							],
							"scale":[
								2,
								2
							]
						}
					},
					"index":9
				}
			}
		},
		{
			"doubleSided":true,
			"name":"mirror_mat",
			"pbrMetallicRoughness":{
				"baseColorFactor":[
					0.800000011920929,
					0.800000011920929,
					0.800000011920929,
					1
				],
				"roughnessFactor":0
			}
		}
	],
	"meshes":[
		{
			"name":"Cube",
			"primitives":[
				{
					"attributes":{
						"POSITION":0,
						"NORMAL":1,
						"TEXCOORD_0":2
					},
					"indices":3,
					"material":0
				}
			]
		},
		{
			"name":"Suzanne",
			"primitives":[
				{
					"attributes":{
						"POSITION":4,
						"NORMAL":5,
						"TEXCOORD_0":6
					},
					"indices":7,
					"material":1
				}
			]
		},
		{
			"name":"Cube.001",
			"primitives":[
				{
					"attributes":{
						"POSITION":8,
						"NORMAL":9,
						"TEXCOORD_0":10
					},
					"indices":11,
					"material":2
				}
			]
		},
		{
			"name":"Cube.002",
			"primitives":[
				{
					"attributes":{
						"POSITION":12,
						"NORMAL":13,
						"TEXCOORD_0":14
					},
					"indices":3,
					"material":3
				}
			]
		},
		{
			"name":"Suzanne.001",
			"primitives":[
				{
					"attributes":{
						"POSITION":15,
						"NORMAL":16,
						"TEXCOORD_0":17
					},
					"indices":7,
					"material":4
				}
			]
		},
		{
			"name":"Cube.003",
			"primitives":[
				{
					"attributes":{
						"POSITION":18,
						"NORMAL":19,
						"TEXCOORD_0":20
					},
					"indices":21,
					"material":5
				}
			]
		},
		{
			"name":"Plane",
			"primitives":[
				{
					"attributes":{
						"POSITION":22,
						"NORMAL":23,
						"TEXCOORD_0":24
					},
					"indices":25,
					"material":6
				}
			]
		}
	],
	"textures":[
		{
			"sampler":0,
			"source":0
		},
		{
			"sampler":0,
			"source":1
		},
		{
			"sampler":0,
			"source":2
		},
		{
			"sampler":0,
			"source":3
		},
		{
			"sampler":0,
			"source":4
		},
		{
			"sampler":0,
			"source":5
		},
		{
			"sampler":0,
			"source":6
		},
		{
			"sampler":0,
			"source":7
		},
		{
			"sampler":0,
			"source":8
		},
		{
			"sampler":0,
			"source":9
		}
	],
	"images":[
		{
			"mimeType":"image/png",
			"name":"wood_floor_deck_nor_dx_1k",
			"uri":"wood_floor_deck_nor_dx_1k.png"
		},
		{
			"mimeType":"image/png",
			"name":"wood_floor_deck_diff_1k",
			"uri":"wood_floor_deck_diff_1k.png"
		},
		{
			"mimeType":"image/png",
			"name":"wood_floor_deck_rough_1k",
			"uri":"wood_floor_deck_rough_1k.png"
		},
		{
			"mimeType":"image/png",
			"name":"floor_klinkers_01_spec_1k",
			"uri":"floor_klinkers_01_spec_1k.png"
		},
		{
			"mimeType":"image/png",
			"name":"floor_klinkers_01_nor_dx_1k",
			"uri":"floor_klinkers_01_nor_dx_1k.png"
		},
		{
			"mimeType":"image/png",
			"name":"floor_klinkers_01_diff_1k",
			"uri":"floor_klinkers_01_diff_1k.png"
		},
		{
			"mimeType":"image/png",
			"name":"floor_klinkers_01_rough_1k",
			"uri":"floor_klinkers_01_rough_1k.png"
		},
		{
			"mimeType":"image/png",
			"name":"metal_plate_02_nor_dx_1k",
			"uri":"metal_plate_02_nor_dx_1k.png"
		},
		{
			"mimeType":"image/png",
			"name":"metal_plate_02_diff_1k",
			"uri":"metal_plate_02_diff_1k.png"
		},
		{
			"mimeType":"image/png",
			"name":"metal_plate_02_metal_1k-metal_plate_02_rough_1k",
			"uri":"metal_plate_02_metal_1k-metal_plate_02_rough_1k.png"
		}
	],
	"accessors":[
		{
			"bufferView":0,
			"componentType":5126,
			"count":4,
			"max":[
				-5.285714149475098,
				6,
				5
			],
			"min":[
				-5.285714149475098,
				-2,
				0
			],
			"type":"VEC3"
		},
		{
			"bufferView":1,
			"componentType":5126,
			"count":4,
			"type":"VEC3"
		},
		{
			"bufferView":2,
			"componentType":5126,
			"count":4,
			"type":"VEC2"
		},
		{
			"bufferView":3,
			"componentType":5123,
			"count":6,
			"type":"SCALAR"
		},
		{
			"bufferView":4,
			"componentType":5126,
			"count":8153,
			"max":[
				1.2612197399139404,
				1.094146728515625,
				0.9013528823852539
			],
			"min":[
				-0.7353156805038452,
				-0.8874779939651489,
				-0.4475252032279968
			],
			"type":"VEC3"
		},
		{
			"bufferView":5,
			"componentType":5126,
			"count":8153,
			"type":"VEC3"
		},
		{
			"bufferView":6,
			"componentType":5126,
			"count":8153,
			"type":"VEC2"
		},
		{
			"bufferView":7,
			"componentType":5123,
			"count":47232,
			"type":"SCALAR"
		},
		{
			"bufferView":8,
			"componentType":5126,
			"count":4,
			"max":[
				9.714286804199219,
				6,
				0
			],
			"min":[
				-5.285714149475098,
				-2,
				0
			],
			"type":"VEC3"
		},
		{
			"bufferView":9,
			"componentType":5126,
			"count":4,
			"type":"VEC3"
		},
		{
			"bufferView":10,
			"componentType":5126,
			"count":4,
			"type":"VEC2"
		},
		{
			"bufferView":11,
			"componentType":5123,
			"count":6,
			"type":"SCALAR"
		},
		{
			"bufferView":12,
			"componentType":5126,
			"count":4,
			"max":[
				9.714286804199219,
				6,
				5
			],
			"min":[
				-5.285714149475098,
				6,
				0
			],
			"type":"VEC3"
		},
		{
			"bufferView":13,
			"componentType":5126,
			"count":4,
			"type":"VEC3"
		},
		{
			"bufferView":14,
			"componentType":5126,
			"count":4,
			"type":"VEC2"
		},
		{
			"bufferView":15,
			"componentType":5126,
			"count":8153,
			"max":[
				1.2612197399139404,
				1.094146728515625,
				0.9013528823852539
			],
			"min":[
				-0.7353156805038452,
				-0.8874779939651489,
				-0.4475252032279968
			],
			"type":"VEC3"
		},
		{
			"bufferView":16,
			"componentType":5126,
			"count":8153,
			"type":"VEC3"
		},
		{
			"bufferView":17,
			"componentType":5126,
			"count":8153,
			"type":"VEC2"
		},
		{
			"bufferView":18,
			"componentType":5126,
			"count":96,
			"max":[
				2,
				1.2000000476837158,
				1
			],
			"min":[
				-2,
				-1.2000000476837158,
				-1
			],
			"type":"VEC3"
		},
		{
			"bufferView":19,
			"componentType":5126,
			"count":96,
			"type":"VEC3"
		},
		{
			"bufferView":20,
			"componentType":5126,
			"count":96,
			"type":"VEC2"
		},
		{
			"bufferView":21,
			"componentType":5123,
			"count":324,
			"type":"SCALAR"
		},
		{
			"bufferView":22,
			"componentType":5126,
			"count":4,
			"max":[
				1,
				4.371138828673793e-08,
				2
			],
			"min":[
				-1,
				-4.371138828673793e-08,
				-1
			],
			"type":"VEC3"
		},
		{
			"bufferView":23,
			"componentType":5126,
			"count":4,
			"type":"VEC3"
		},
		{
			"bufferView":24,
			"componentType":5126,
			"count":4,
			"type":"VEC2"
		},
		{
			"bufferView":25,
			"componentType":5123,
			"count":6,
			"type":"SCALAR"
		}
	],
	"bufferViews":[
		{
			"buffer":0,
			"byteLength":48,
			"byteOffset":0,
			"target":34962
		},
		{
			"buffer":0,
			"byteLength":48,
			"byteOffset":48,
			"target":34962
		},
		{
			"buffer":0,
			"byteLength":32,
			"byteOffset":96,
			"target":34962
		},
		{
			"buffer":0,
			"byteLength":12,
			"byteOffset":128,
			"target":34963
		},
		{
			"buffer":0,
			"byteLength":97836,
			"byteOffset":140,
			"target":34962
		},
		{
			"buffer":0,
			"byteLength":97836,
			"byteOffset":97976,
			"target":34962
		},
		{
			"buffer":0,
			"byteLength":65224,
			"byteOffset":195812,
			"target":34962
		},
		{
			"buffer":0,
			"byteLength":94464,
			"byteOffset":261036,
			"target":34963
		},
		{
			"buffer":0,
			"byteLength":48,
			"byteOffset":355500,
			"target":34962
		},
		{
			"buffer":0,
			"byteLength":48,
			"byteOffset":355548,
			"target":34962
		},
		{
			"buffer":0,
			"byteLength":32,
			"byteOffset":355596,
			"target":34962
		},
		{
			"buffer":0,
			"byteLength":12,
			"byteOffset":355628,
			"target":34963
		},
		{
			"buffer":0,
			"byteLength":48,
			"byteOffset":355640,
			"target":34962
		},
		{
			"buffer":0,
			"byteLength":48,
			"byteOffset":355688,
			"target":34962
		},
		{
			"buffer":0,
			"byteLength":32,
			"byteOffset":355736,
			"target":34962
		},
		{
			"buffer":0,
			"byteLength":97836,
			"byteOffset":355768,
			"target":34962
		},
		{
			"buffer":0,
			"byteLength":97836,
			"byteOffset":453604,
			"target":34962
		},
		{
			"buffer":0,
			"byteLength":65224,
			"byteOffset":551440,
			"target":34962
		},
		{
			"buffer":0,
			"byteLength":1152,
			"byteOffset":616664,
			"target":34962
		},
		{
			"buffer":0,
			"byteLength":1152,
			"byteOffset":617816,
			"target":34962
		},
		{
			"buffer":0,
			"byteLength":768,
			"byteOffset":618968,
			"target":34962
		},
		{
			"buffer":0,
			"byteLength":648,
			"byteOffset":619736,
			"target":34963
		},
		{
			"buffer":0,
			"byteLength":48,
			"byteOffset":620384,
			"target":34962
		},
		{
			"buffer":0,
			"byteLength":48,
			"byteOffset":620432,
			"target":34962
		},
		{
			"buffer":0,
			"byteLength":32,
			"byteOffset":620480,
			"target":34962
		},
		{
			"buffer":0,
			"byteLength":12,
			"byteOffset":620512,
			"target":34963
		}
	],
	"samplers":[
		{
			"magFilter":9729,
			"minFilter":9987
		}
	],
	"buffers":[
		{
			"byteLength":620524,
			"uri":"test_scene.bin"
		}
	]
}
